<svg width="512" height="512" viewBox="0 0 100 100" fill="none" xmlns="http://www.w3.org/2000/svg">
  <defs>
    <linearGradient id="logo-bg-grad" x1="0%" y1="0%" x2="100%" y2="100%">
      <stop offset="0%" stop-color="#10B981" />
      <stop offset="100%" stop-color="#06B6D4" />
    </linearGradient>
    <filter id="logo-shadow" x="-20%" y="-20%" width="140%" height="140%">
      <feDropShadow dx="0" dy="3" stdDeviation="3" flood-color="#000000" flood-opacity="0.12" />
    </filter>
  </defs>
  <rect x="6" y="6" width="88" height="88" rx="22" fill="url(#logo-bg-grad)" />
  <path d="M 6 72 C 30 76, 70 48, 94 24" stroke="rgba(255, 255, 255, 0.08)" stroke-width="6" fill="none" />
  <g filter="url(#logo-shadow)">
    <path d="M 37 30 L 37 70" stroke="#FFFFFF" stroke-width="6.5" stroke-linecap="round" fill="none" />
    <path d="M 37 30 L 59 30 C 67 30, 67 44, 37 44" stroke="#FFFFFF" stroke-width="6.5" stroke-linecap="round" stroke-linejoin="round" fill="none" />
    <path d="M 31 37 L 53 37" stroke="#FFFFFF" stroke-width="6.5" stroke-linecap="round" fill="none" />
    <path d="M 37 44 C 47 44, 52 66, 64 66 C 73 66, 76 46, 78 35" stroke="#FFFFFF" stroke-width="6.5" stroke-linecap="round" stroke-linejoin="round" fill="none" />
    <path d="M 71 39 L 78 35 L 81 42" stroke="#FFFFFF" stroke-width="6.5" stroke-linecap="round" stroke-linejoin="round" fill="none" />
  </g>
</svg>